<?xml version="1.0" encoding="UTF-8"?>
<svg width="124px" height="36px" viewBox="0 0 124 36" version="1.1" xmlns="http://www.w3.org/2000/svg" xmlns:xlink="http://www.w3.org/1999/xlink">
    <!-- Generator: Sketch 42 (36781) - http://www.bohemiancoding.com/sketch -->
    <title>logo</title>
    <desc>Created with Sketch.</desc>
    <defs></defs>
    <g id="销售代表" stroke="none" stroke-width="1" fill="none" fill-rule="evenodd">
        <g id="客户统计" transform="translate(-30.000000, -16.000000)">
            <g id="logo" transform="translate(30.000000, 16.000000)">
                <path d="M85.6827324,24.9516705 C85.5563567,24.4773041 85.3036053,24.0345622 84.9244782,23.6866935 C84.3557875,23.1807028 83.5343454,22.9277074 82.4285579,22.9277074 L65.9681214,22.9277074 C63.9461101,22.9277074 62.8087287,24.1294355 62.8087287,26.2798963 L62.8087287,31.5927995 C62.8087287,32.7312788 62.9351044,33.4586406 63.1878558,33.8697581 C63.7565465,34.7552419 64.7043643,35.2296083 66.0313093,35.2296083 L82.6497154,35.2296083 C83.2184061,35.2296083 83.5975332,35.1979839 83.8818786,35.1031106 C84.4505693,34.9449885 84.9244782,34.5971198 85.3036053,34.0595046 C85.6511385,33.5851382 85.8091082,32.9210253 85.8091082,32.0355415 L85.8091082,26.2482719 C85.7775142,25.6474078 85.7459203,25.2362903 85.6827324,24.9516705 Z M82.3021822,31.0551843 C82.3021822,31.2133065 82.3021822,31.3081797 82.2705882,31.3714286 L82.1442125,31.3714286 L66.4420304,31.3714286 L66.2840607,31.3714286 L66.2840607,31.3714286 L66.2840607,31.3081797 L66.2840607,26.8807604 L66.2840607,26.7542627 L66.3472486,26.7542627 L82.1758065,26.7542627 L82.2705882,26.7542627 C82.2705882,26.7858871 82.3021822,26.8175115 82.3021822,26.9440092 L82.3021822,31.0551843 L82.3021822,31.0551843 Z" id="Shape" fill="#4C99FF" fill-rule="nonzero"></path>
                <path d="M82.0810247,21.6943548 L66.6631879,21.6943548 C64.5463947,21.6943548 62.8719165,19.5755184 62.8719165,16.8874424 C62.8719165,14.4523618 64.2304554,12.4916475 66.0629032,12.1437788 C66.6631879,9.13945853 69.3170778,6.89412442 72.4764706,6.89412442 C73.3611006,6.89412442 74.056167,7.58986175 74.056167,8.47534562 C74.056167,9.36082949 73.3611006,10.0565668 72.4764706,10.0565668 C70.6124288,10.0565668 69.0959203,11.5745392 69.0959203,13.4403802 L69.0959203,13.5985023 C69.1275142,14.0412442 68.9695446,14.4523618 68.6536053,14.768606 C68.36926,15.0848502 67.926945,15.2745968 67.5162239,15.2745968 L66.6631879,15.2745968 C66.5052182,15.3062212 66.0313093,15.8754608 66.0313093,16.9190668 C66.0313093,17.9626728 66.5052182,18.500288 66.6631879,18.5635369 L82.0810247,18.5635369 C82.2389943,18.5319124 82.7129032,17.9626728 82.7129032,16.9190668 C82.7129032,15.8754608 82.2389943,15.3378456 82.0810247,15.2745968 C81.1963947,15.2745968 80.5013283,14.5788594 80.5013283,13.6933756 C80.5013283,12.8078917 81.1963947,12.1121544 82.0810247,12.1121544 C84.1978178,12.1121544 85.872296,14.2309908 85.872296,16.9190668 C85.8407021,19.5755184 84.1978178,21.6943548 82.0810247,21.6943548 Z" id="Shape" fill="#4C9BFF" fill-rule="nonzero"></path>
                <g id="Group" transform="translate(0.000000, 6.641129)" fill-rule="nonzero" fill="#4C99FF">
                    <path d="M21.5154649,28.6517281 L17.4082543,28.6517281 C17.2818786,28.6517281 17.1555028,28.5884793 17.0607211,28.493606 C16.9659393,28.3987327 16.9027514,28.272235 16.9343454,28.1457373 L16.9659393,24.9832949 C16.9659393,24.6986751 17.1870968,24.5089286 17.4714421,24.5089286 L20.7572106,24.5089286 C21.5470588,24.5089286 22.1157495,24.3508065 22.4000949,24.0661866 C22.6844402,23.7815668 22.8108159,23.2439516 22.8108159,22.5165899 L22.8108159,16.4447005 L16.7447818,16.4447005 C16.4604364,16.4447005 16.2392789,16.2233295 16.2392789,15.9387097 L16.2392789,12.7762673 C16.2392789,12.4916475 16.4604364,12.2702765 16.7447818,12.2702765 L22.9055977,12.2702765 C24.0113852,10.7206797 24.7380455,9.58220046 25.1171727,8.88646313 C25.8754269,7.46336406 26.0333966,6.70437788 26.0333966,6.29326037 C26.0333966,6.16676267 26.0018027,6.13513825 25.9386148,6.10351382 C25.9386148,6.10351382 25.6858634,6.04026498 24.2641366,6.04026498 L16.9659393,6.04026498 C16.6815939,6.04026498 16.4604364,5.81889401 16.4604364,5.53427419 L16.4604364,2.3718318 C16.4604364,2.08721198 16.6815939,1.86584101 16.9659393,1.86584101 L26.728463,1.86584101 C27.4551233,1.86584101 28.1817837,2.11883641 28.8768501,2.65645161 C29.3191651,2.97269585 29.6666983,3.44706221 29.8878558,4.01630184 C30.1406072,4.68041475 30.2669829,5.31290323 30.2669829,5.97701613 C30.2669829,7.40011521 29.5087287,9.45570276 27.9290323,12.3019009 L29.8246679,12.3019009 C30.1090133,12.3019009 30.3301708,12.5232719 30.3301708,12.8078917 L30.3301708,15.9703341 C30.3301708,16.2549539 30.1090133,16.4763249 29.8246679,16.4763249 L26.6652751,16.4763249 L26.6652751,22.1054724 C26.6652751,24.1610599 26.3493359,25.6474078 25.7174573,26.5961406 C24.7696395,27.9243664 23.3479127,28.6201037 21.5154649,28.6517281 L21.5154649,28.6517281 Z" id="Shape"></path>
                    <path d="M1.73766603,28.5252304 C1.57969639,28.5252304 1.39013283,28.493606 1.26375712,28.3987327 C1.07419355,28.272235 0.947817837,28.0824885 0.947817837,27.8927419 L0.947817837,24.9832949 C0.947817837,24.6986751 1.16897533,24.4773041 1.48491461,24.3824309 C2.74867173,24.0345622 3.94924099,23.8764401 5.02343454,23.2439516 C4.20199241,22.2635945 3.63330171,21.4729839 3.31736243,20.8404954 C2.7170778,19.6387673 2.40113852,18.2472926 2.40113852,16.6660714 L2.40113852,6.0718894 L0.884629981,6.0718894 C0.442314991,6.0718894 0.0947817837,5.78726959 0.0947817837,5.43940092 L0.0947817837,2.52995392 C0.0947817837,2.18208525 0.442314991,1.89746544 0.884629981,1.89746544 L2.33795066,1.89746544 L2.33795066,0.790610599 C2.33795066,0.442741935 2.68548387,0.15812212 3.12779886,0.15812212 L5.97125237,0.15812212 C6.41356736,0.15812212 6.76110057,0.442741935 6.76110057,0.790610599 L6.76110057,1.89746544 L9.79411765,1.89746544 L9.79411765,0.790610599 C9.79411765,0.442741935 10.1416509,0.15812212 10.5839658,0.15812212 L13.4274194,0.15812212 C13.8697343,0.15812212 14.2172676,0.442741935 14.2172676,0.790610599 L14.2172676,1.89746544 L14.912334,1.89746544 C15.354649,1.89746544 15.7021822,2.18208525 15.7021822,2.52995392 L15.7021822,5.43940092 C15.7021822,5.78726959 15.354649,6.0718894 14.912334,6.0718894 L14.2172676,6.0718894 L14.2172676,16.3814516 C14.2172676,17.899424 13.9645161,19.1960253 13.4906072,20.3028802 C13.0482922,21.2832373 12.4164137,22.2635945 11.5633776,23.275576 C12.6691651,23.8764401 13.8697343,24.0345622 15.1334915,24.4140553 C15.4494307,24.5089286 15.6389943,24.7302995 15.6389943,25.0149194 L15.6389943,27.8927419 C15.6389943,28.0824885 15.5126186,28.272235 15.323055,28.3987327 C15.1334915,28.5252304 14.88074,28.5568548 14.6279886,28.493606 C12.3848197,27.9559908 10.7103416,27.3867512 9.5097723,26.7226382 C9.19383302,26.5328917 8.78311195,26.3115207 8.24601518,25.9636521 C7.10863378,26.6593894 6.12922201,27.1653802 5.30777989,27.5132488 C4.48633776,27.8294931 3.38055028,28.1457373 1.9272296,28.493606 C1.89563567,28.5252304 1.83244782,28.5252304 1.73766603,28.5252304 Z M6.7926945,6.0718894 L6.7926945,17.5199309 C6.7926945,18.1207949 7.04544592,18.8481567 7.55094877,19.6703917 C7.77210626,20.0498848 8.02485769,20.3977535 8.27760911,20.7139977 C8.81470588,20.0182604 9.19383302,19.4490207 9.41499051,18.9114055 C9.66774194,18.3421659 9.79411765,17.8361751 9.8573055,17.4250576 L9.8573055,16.2865783 L9.8573055,6.0718894 L6.7926945,6.0718894 Z" id="Shape"></path>
                </g>
                <path d="M39.429222,35.1979839 L39.429222,35.1979839 L38.4498102,35.1979839 C37.3756167,35.1979839 36.6173624,34.9766129 36.1750474,34.533871 C35.3536053,33.7432604 34.9112903,32.66803 34.9112903,31.2765553 L34.9112903,15.2429724 C34.9112903,14.4207373 34.8481025,14.1993664 34.7533207,14.1044931 C34.6901328,14.0412442 34.595351,14.0412442 34.2794118,14.0412442 L33.0788425,14.0412442 C32.9208729,14.0412442 32.7944972,13.9147465 32.7944972,13.7566244 L32.7944972,10.2146889 C32.7944972,10.0565668 32.9208729,9.93006912 33.0788425,9.93006912 L35.2904175,9.93006912 C36.4277989,9.93006912 37.2808349,10.3095622 37.8495256,11.0685484 C38.3550285,11.7642857 38.576186,12.7446429 38.576186,14.1361175 L38.576186,30.2961982 C38.576186,30.9919355 38.576186,31.1500576 38.6709677,31.3081797 C38.7025617,31.3398041 38.8605313,31.3714286 39.1764706,31.3714286 L39.3976281,31.3714286 C39.5555977,31.3714286 39.6819734,31.4979263 39.6819734,31.6560484 L39.6819734,34.8501152 L39.6819734,34.9133641 C39.7451613,35.0714862 39.5871917,35.1979839 39.429222,35.1979839 Z" id="Shape" fill="#F6A623" fill-rule="nonzero"></path>
                <path d="M59.9652751,13.946371 C60.2180266,13.946371 60.4391841,13.725 60.4391841,13.4403802 L60.4391841,10.4676843 C60.4391841,10.1830645 60.2180266,9.96169355 59.9652751,9.96169355 L57.848482,9.96169355 L57.848482,7.40011521 C57.848482,7.11549539 57.6273245,6.89412442 57.3745731,6.89412442 L54.5627135,6.89412442 C54.309962,6.89412442 54.0888046,7.11549539 54.0888046,7.40011521 L54.0888046,9.96169355 L47.8016129,9.96169355 L47.8016129,7.40011521 C47.8016129,7.11549539 47.5804554,6.89412442 47.327704,6.89412442 L44.5158444,6.89412442 C44.263093,6.89412442 44.0419355,7.11549539 44.0419355,7.40011521 L44.0419355,9.96169355 L41.4196395,9.96169355 C41.166888,9.96169355 40.9457306,10.1830645 40.9457306,10.4676843 L40.9457306,13.4403802 C40.9457306,13.725 41.166888,13.946371 41.4196395,13.946371 L44.0419355,13.946371 L44.0419355,21.7259793 L41.4196395,21.7259793 C41.166888,21.7259793 40.9457306,21.9473502 40.9457306,22.23197 L40.9457306,25.2046659 C40.9457306,25.4892857 41.166888,25.7106567 41.4196395,25.7106567 L44.0419355,25.7106567 C44.0419355,26.3431452 44.0103416,26.6910138 44.0103416,26.8491359 C43.9471537,27.7029954 43.820778,28.4303571 43.5680266,28.9363479 C43.1888994,29.7585829 42.493833,30.7389401 41.4828273,31.3398041 C41.3248577,31.4346774 41.2300759,31.5927995 41.2300759,31.7825461 L41.2300759,34.6603687 C41.2300759,34.8184908 41.2932638,34.9766129 41.4196395,35.0714862 C41.5144213,35.134735 41.609203,35.1663594 41.7039848,35.1663594 C41.7671727,35.1663594 41.7987666,35.1663594 41.8619545,35.134735 C42.7149905,34.8501152 43.3152751,34.5971198 43.7575901,34.3125 C44.705408,33.7432604 45.558444,32.9210253 46.2535104,31.8774194 C47.2961101,30.359447 47.8332068,28.4303571 47.8332068,26.1533986 L47.8332068,25.6790323 L54.1203985,25.6790323 L54.1203985,34.6287442 C54.1203985,34.9133641 54.341556,35.134735 54.5943074,35.134735 L57.406167,35.134735 C57.6589184,35.134735 57.8800759,34.9133641 57.8800759,34.6287442 L57.8800759,25.6790323 L59.9968691,25.6790323 C60.2496205,25.6790323 60.470778,25.4576613 60.470778,25.1730415 L60.470778,22.2003456 C60.470778,21.9157258 60.2496205,21.6943548 59.9968691,21.6943548 L57.8800759,21.6943548 L57.8800759,13.946371 L59.9652751,13.946371 Z M54.4047438,21.7892281 L48.0543643,21.7892281 L48.0543643,13.946371 L54.4047438,13.946371 L54.4047438,21.7892281 Z" id="Shape" fill="#4C9BFF" fill-rule="nonzero"></path>
                <g id="Group" transform="translate(34.437381, 0.000000)" fill-rule="nonzero" fill="#F6A623">
                    <path d="M6.72950664,7.08387097 C6.53994307,7.08387097 6.38197343,6.9889977 6.28719165,6.79925115 C5.84487666,5.85051843 5.05502846,5.15478111 4.0756167,4.77528802 C3.09620493,4.42741935 2.02201139,4.4906682 1.07419355,4.93341014 C0.821442125,5.05990783 0.568690702,4.93341014 0.442314991,4.71203917 C0.315939279,4.4906682 0.442314991,4.20604839 0.663472486,4.07955069 C1.83244782,3.51031106 3.15939279,3.44706221 4.39155598,3.88980415 C5.62371917,4.33254608 6.60313093,5.21802995 7.1402277,6.38813364 C7.26660342,6.60950461 7.1402277,6.89412442 6.91907021,7.02062212 C6.85588235,7.08387097 6.7926945,7.08387097 6.72950664,7.08387097 Z" id="Shape"></path>
                    <path d="M8.81470588,4.77528802 C8.62514231,4.77528802 8.46717268,4.68041475 8.37239089,4.4906682 C7.04544592,1.67609447 3.69648956,0.474366359 0.884629981,1.80259217 C0.663472486,1.92908986 0.379127135,1.80259217 0.252751423,1.5812212 C0.126375712,1.35985023 0.252751423,1.07523041 0.473908918,0.948732719 C3.75967742,-0.600864055 7.67732448,0.790610599 9.22542694,4.07955069 C9.35180266,4.30092166 9.22542694,4.58554147 9.00426945,4.71203917 C8.97267552,4.74366359 8.87789374,4.77528802 8.81470588,4.77528802 Z" id="Shape"></path>
                    <path d="M4.61271347,9.39245392 C4.42314991,9.39245392 4.26518027,9.29758065 4.17039848,9.1078341 C3.66489564,8.00097926 2.33795066,7.5266129 1.23216319,8.06422811 C1.01100569,8.19072581 0.726660342,8.06422811 0.60028463,7.84285714 C0.473908918,7.62148618 0.60028463,7.33686636 0.821442125,7.21036866 C2.40113852,6.48300691 4.26518027,7.14711982 5.02343454,8.72834101 C5.14981025,8.94971198 5.02343454,9.2343318 4.80227704,9.36082949 C4.77068311,9.39245392 4.70749526,9.39245392 4.61271347,9.39245392 Z" id="Shape"></path>
                </g>
                <text id="CRM" font-family="PingFangSC-Regular, PingFang SC" font-size="14" font-weight="normal" fill="#4C99FF">
                    <tspan x="93" y="34">CRM</tspan>
                </text>
            </g>
        </g>
    </g>
</svg>