<?xml version="1.0" encoding="UTF-8"?>
<svg width="13px" height="14px" viewBox="0 0 13 14" version="1.1" xmlns="http://www.w3.org/2000/svg" xmlns:xlink="http://www.w3.org/1999/xlink">
    <!-- Generator: Sketch 42 (36781) - http://www.bohemiancoding.com/sketch -->
    <title>我的客户（选中）</title>
    <desc>Created with Sketch.</desc>
    <defs></defs>
    <g id="销售代表" stroke="none" stroke-width="1" fill="none" fill-rule="evenodd">
        <g id="我的客户" transform="translate(-30.000000, -157.000000)" fill-rule="nonzero" fill="#4C9BFF">
            <g transform="translate(30.000000, 155.000000)" id="我的客户（选中）">
                <path d="M6.40456913,9 C4.49547822,9 2.92578125,7.38787879 2.92578125,5.47878788 C2.92578125,3.56969697 4.45305398,2 6.40456913,2 C8.35608428,2 9.88335701,3.61212121 9.88335701,5.52121212 C9.88335701,7.43030303 8.31366004,9 6.40456913,9 Z M12.7682055,13.2848485 C12.9379025,13.9636364 12.8106297,14.6424242 12.3863873,15.1515152 C11.9621449,15.7030303 11.3682055,16 10.6894176,16 L2.16214488,16 C1.483357,16 0.889417607,15.7030303 0.465175184,15.1515152 C0.0409327598,14.6 -0.0863399688,13.9212121 0.083356998,13.2848485 C0.719720641,10.9090909 2.883357,9.21212122 5.3863873,9.21212122 L7.42275095,9.21212122 C9.92578125,9.21212122 12.1318419,10.9090909 12.7682055,13.2848485 Z"></path>
            </g>
        </g>
    </g>
</svg>