<?xml version="1.0" encoding="UTF-8"?>
<svg width="16px" height="16px" viewBox="0 0 16 16" version="1.1" xmlns="http://www.w3.org/2000/svg" xmlns:xlink="http://www.w3.org/1999/xlink">
    <!-- Generator: Sketch 42 (36781) - http://www.bohemiancoding.com/sketch -->
    <title>管理日志（选中）</title>
    <desc>Created with Sketch.</desc>
    <defs></defs>
    <g id="超级管理员" stroke="none" stroke-width="1" fill="none" fill-rule="evenodd">
        <g id="管理日志" transform="translate(-30.000000, -685.000000)" stroke="#4C9BFF" stroke-width="0.3" fill="#4C9BFF" fill-rule="nonzero">
            <g id="员工管理-copy-3" transform="translate(0.000000, 675.000000)">
                <path d="M31.0000074,13.102431 C31.0000074,12.2832946 31.6587327,11.6186283 32.4838102,11.6186283 L35.4573568,11.6186283 C36.2764931,11.6186283 36.9411595,12.2773535 36.9411595,13.102431 L36.9411595,16.0759776 C36.9421488,16.469809 36.7861377,16.8477951 36.507656,17.1262768 C36.2291743,17.4047586 35.8511882,17.5607696 35.4573568,17.5597804 L32.4838102,17.5597804 C32.0899788,17.5607696 31.7119927,17.4047586 31.4335109,17.1262768 C31.1550292,16.8477951 30.9990181,16.469809 31.0000074,16.0759776 L31.0000074,13.102431 L31.0000074,13.102431 Z M38.2452424,15.6385603 C37.9659705,15.3607672 37.8089522,14.9831102 37.8089522,14.5892043 C37.8089522,14.1952984 37.9659705,13.8176414 38.2452424,13.5398483 L40.3476676,11.4374231 C40.9269299,10.8581608 41.8626614,10.8537049 42.4463796,11.4374231 L44.5488048,13.5398483 C45.1280671,14.1191107 45.132523,15.0548421 44.5488048,15.6385603 L42.4463796,17.7409855 C41.8671172,18.3202478 40.9313858,18.3247037 40.3476676,17.7409855 L38.2452424,15.6385603 Z M40.8727169,17.2159362 C41.0112402,17.3559883 41.200038,17.4347986 41.3970236,17.4347986 C41.5940091,17.4347986 41.782807,17.3559883 41.9213303,17.2159362 L44.0230128,15.113511 C44.163065,14.9749877 44.2418753,14.7861899 44.2418753,14.5892043 C44.2418753,14.3922188 44.163065,14.2034209 44.0230128,14.0648976 L41.9213303,11.9632151 C41.782807,11.8231629 41.5940091,11.7443526 41.3970236,11.7443526 C41.200038,11.7443526 41.0112402,11.8231629 40.8727169,11.9632151 L38.7710344,14.0648976 C38.6309822,14.2034209 38.5521719,14.3922188 38.5521719,14.5892043 C38.5521719,14.7861899 38.6309822,14.9749877 38.7710344,15.113511 L40.8727169,17.2151935 L40.8727169,17.2159362 Z M38.4264475,20.5288711 C38.4264475,19.7097348 39.0851728,19.0450684 39.9102503,19.0450684 L42.8837969,19.0450684 C43.7029332,19.0450684 44.3675996,19.7037936 44.3675996,20.5288711 L44.3675996,23.5024177 C44.3685889,23.8962491 44.2125778,24.2742352 43.9340961,24.552717 C43.6556144,24.8311987 43.2776283,24.9872098 42.8837969,24.9862205 L39.9102503,24.9862205 C39.5164189,24.9872098 39.1384328,24.8311987 38.8599511,24.552717 C38.5814693,24.2742352 38.4254583,23.8962491 38.4264475,23.5024177 L38.4264475,20.5288711 L38.4264475,20.5288711 Z M31.0000074,20.5288711 C31.0000074,19.7097348 31.6587327,19.0450684 32.4838102,19.0450684 L35.4573568,19.0450684 C36.2764931,19.0450684 36.9411595,19.7037936 36.9411595,20.5288711 L36.9411595,23.5024177 C36.9421488,23.8962491 36.7861377,24.2742352 36.507656,24.552717 C36.2291743,24.8311987 35.8511882,24.9872098 35.4573568,24.9862205 L32.4838102,24.9862205 C32.0899788,24.9872098 31.7119927,24.8311987 31.4335109,24.552717 C31.1550292,24.2742352 30.9990181,23.8962491 31.0000074,23.5024177 L31.0000074,20.5288711 L31.0000074,20.5288711 Z" id="管理日志（选中）"></path>
            </g>
        </g>
    </g>
</svg>