<?xml version="1.0" encoding="UTF-8"?>
<svg width="15px" height="14px" viewBox="0 0 15 14" version="1.1" xmlns="http://www.w3.org/2000/svg" xmlns:xlink="http://www.w3.org/1999/xlink">
    <!-- Generator: Sketch 42 (36781) - http://www.bohemiancoding.com/sketch -->
    <title>客户统计（选中）</title>
    <desc>Created with Sketch.</desc>
    <defs></defs>
    <g id="销售代表" stroke="none" stroke-width="1" fill="none" fill-rule="evenodd">
        <g id="客户统计" transform="translate(-30.000000, -306.000000)" fill-rule="nonzero" fill="#4C9BFF">
            <g transform="translate(30.000000, 303.000000)" id="客户统计（选中）">
                <path d="M13.815873,16.1761905 L0.406349206,16.1761905 C0.180952381,16.1761905 0,16.3571429 0,16.5825397 L0,16.5904762 C0,16.815873 0.180952381,16.9968254 0.406349206,16.9968254 L13.815873,16.9968254 C14.0412698,16.9968254 14.2222222,16.815873 14.2222222,16.5904762 L14.2222222,16.5825397 C14.2222222,16.3571429 14.0412698,16.1761905 13.815873,16.1761905 Z M2.73174603,14.6571429 L2.70952381,14.6571429 C1.97142857,14.6571429 1.36984127,14.0555556 1.36984127,13.3174603 L1.36984127,6.54444444 C1.36984127,5.80634921 1.97142857,5.2047619 2.70952381,5.2047619 L2.73174603,5.2047619 C3.46984127,5.2047619 4.07142857,5.80634921 4.07142857,6.54444444 L4.07142857,13.3174603 C4.07142857,14.0539683 3.46825397,14.6571429 2.73174603,14.6571429 L2.73174603,14.6571429 Z M11.3111111,14.6571429 C10.5730159,14.6571429 9.97142857,14.0555556 9.97142857,13.3174603 L9.97142857,7.28253968 C9.97142857,6.54444444 10.5730159,5.94285714 11.3111111,5.94285714 L11.3333333,5.94285714 C12.0714286,5.94285714 12.6730159,6.54444444 12.6730159,7.28253968 L12.6730159,8.33650794 C12.6730159,8.53968254 12.6730159,9.57777778 12.6730159,9.78095238 L12.6730159,13.3174603 C12.6714286,14.0539683 12.0698413,14.6571429 11.3333333,14.6571429 L11.3111111,14.6571429 Z M7.02857143,14.6571429 L7.00634921,14.6571429 C6.26825397,14.6571429 5.66666667,14.0555556 5.66666667,13.3174603 L5.66666667,4.33968254 C5.66666667,3.6015873 6.26825397,3 7.00634921,3 L7.02857143,3 C7.76666667,3 8.36825397,3.6015873 8.36825397,4.33968254 L8.36825397,13.3238095 C8.36825397,14.0539683 7.76507937,14.6571429 7.02857143,14.6571429 L7.02857143,14.6571429 Z"></path>
            </g>
        </g>
    </g>
</svg>