<?xml version="1.0" encoding="UTF-8"?>
<svg width="13px" height="14px" viewBox="0 0 13 14" version="1.1" xmlns="http://www.w3.org/2000/svg" xmlns:xlink="http://www.w3.org/1999/xlink">
    <!-- Generator: Sketch 42 (36781) - http://www.bohemiancoding.com/sketch -->
    <title>我的客户</title>
    <desc>Created with Sketch.</desc>
    <defs></defs>
    <g id="销售代表" stroke="none" stroke-width="1" fill="none" fill-rule="evenodd">
        <g id="公共客户" transform="translate(-30.000000, -157.000000)" fill-rule="nonzero" fill="#D6DADB">
            <g id="我的客户" transform="translate(30.000000, 155.000000)">
                <g transform="translate(0.000000, 2.000000)" id="Shape">
                    <path d="M6.40456913,7 C8.31366004,7 9.88335701,5.43030303 9.88335701,3.52121212 C9.88335701,1.61212121 8.35608428,0 6.40456913,0 C4.45305398,0 2.92578125,1.56969697 2.92578125,3.47878788 C2.92578125,5.38787879 4.49547822,7 6.40456913,7 Z M6.40456913,0.848484848 C7.84699337,0.848484848 9.03487216,2.03636363 9.03487216,3.47878788 C9.03487216,4.92121213 7.84699338,6.10909091 6.40456913,6.10909091 C4.96214488,6.10909091 3.7742661,4.92121213 3.7742661,3.47878788 C3.7742661,2.03636363 4.96214489,0.848484848 6.40456913,0.848484848 Z"></path>
                    <path d="M12.7682055,11.2848485 C12.1318419,8.90909091 9.92578125,7.21212122 7.42275095,7.21212122 L5.3863873,7.21212122 C2.883357,7.21212122 0.719720641,8.90909091 0.083356998,11.2848485 C-0.0863399688,11.9212121 0.0409327598,12.6 0.465175184,13.1515152 C0.889417607,13.7030303 1.483357,14 2.16214488,14 L10.6894176,14 C11.3682055,14 11.9621449,13.7030303 12.3863873,13.1515152 C12.8106297,12.6424242 12.9379025,11.9636364 12.7682055,11.2848485 Z M11.7075994,12.6424242 C11.453054,12.9818182 11.0712358,13.1515152 10.6894176,13.1515152 L2.16214489,13.1515152 C1.73790247,13.1515152 1.39850854,12.9818182 1.14396308,12.6424242 C0.889417621,12.3030303 0.804569145,11.9212121 0.931841859,11.4969697 C1.44093276,9.5030303 3.26517518,8.06060607 5.38638732,8.06060607 L7.42275096,8.06060607 C9.54396308,8.06060607 11.3682055,9.5030303 11.9197207,11.5393939 C12.0469934,11.9212121 11.9621449,12.3030303 11.7075994,12.6424242 Z"></path>
                </g>
            </g>
        </g>
    </g>
</svg>