<?xml version="1.0" encoding="UTF-8"?>
<svg width="16px" height="16px" viewBox="0 0 16 16" version="1.1" xmlns="http://www.w3.org/2000/svg" xmlns:xlink="http://www.w3.org/1999/xlink">
    <!-- Generator: Sketch 42 (36781) - http://www.bohemiancoding.com/sketch -->
    <title>管理日志</title>
    <desc>Created with Sketch.</desc>
    <defs></defs>
    <g id="超级管理员" stroke="none" stroke-width="1" fill="none" fill-rule="evenodd">
        <g id="客户统计" transform="translate(-30.000000, -685.000000)" stroke="#D6DADB" stroke-width="0.3" fill="#D6DADB" fill-rule="nonzero">
            <g id="员工管理-copy-3" transform="translate(31.000000, 683.000000)">
                <path d="M0.742651441,5.102431 L0.742651441,8.07597762 C0.742651441,8.48888769 1.07238538,8.81713633 1.48381016,8.81713635 L4.45735678,8.81713635 C4.65422728,8.81813016 4.84332188,8.7403632 4.98253212,8.60115296 C5.12174236,8.46194272 5.19950932,8.27284812 5.19851551,8.07597762 L5.19851551,5.102431 C5.19950932,4.9055605 5.12174235,4.7164659 4.98253211,4.57725567 C4.84332187,4.43804543 4.65422728,4.36027847 4.45735678,4.36127228 L1.48381016,4.36127228 C1.28693966,4.36027847 1.09784507,4.43804544 0.958634834,4.57725567 C0.819424597,4.71646591 0.741657631,4.9055605 0.742651441,5.102431 L0.742651441,5.102431 Z M7.4271653e-06,5.102431 C7.4271653e-06,4.28329465 0.658732671,3.61862827 1.48381016,3.61862827 L4.45735678,3.61862827 C5.27649313,3.61862827 5.94115952,4.2773535 5.94115952,5.102431 L5.94115952,8.07597762 C5.94214881,8.46980902 5.78613774,8.84779512 5.50765601,9.12627685 C5.22917428,9.40475858 4.85118818,9.56076965 4.45735678,9.55978036 L1.48381016,9.55978036 C1.08997876,9.56076964 0.711992666,9.40475857 0.433510937,9.12627684 C0.155029208,8.84779511 -0.000981856229,8.46980901 7.4271653e-06,8.07597762 L7.4271653e-06,5.102431 L7.4271653e-06,5.102431 Z M7.24524241,7.63856029 C6.96597046,7.36076718 6.8089522,6.98311018 6.8089522,6.58920431 C6.8089522,6.19529844 6.96597046,5.81764143 7.24524241,5.53984832 L9.34766761,3.43742312 C9.92692994,2.85816079 10.8626614,2.85370493 11.4463796,3.43742312 L13.5488048,5.53984832 C14.1280671,6.11911065 14.132523,7.0548421 13.5488048,7.63856029 L11.4463796,9.74098549 C10.8671172,10.3202478 9.9313858,10.3247037 9.34766761,9.74098549 L7.24524241,7.63856029 Z M9.87271692,9.21593617 C10.0112402,9.35598833 10.200038,9.43479862 10.3970236,9.43479862 C10.5940091,9.43479862 10.782807,9.35598833 10.9213303,9.21593617 L13.0230128,7.11351098 C13.163065,6.9749877 13.2418753,6.78618985 13.2418753,6.58920431 C13.2418753,6.39221876 13.163065,6.20342091 13.0230128,6.06489764 L10.9213303,3.96321509 C10.782807,3.82316293 10.5940091,3.74435264 10.3970236,3.74435264 C10.200038,3.74435264 10.0112402,3.82316293 9.87271692,3.96321509 L7.77103436,6.06489764 C7.6309822,6.20342091 7.55217192,6.39221876 7.55217192,6.58920431 C7.55217192,6.78618985 7.6309822,6.9749877 7.77103436,7.11351098 L9.87271692,9.21519354 L9.87271692,9.21593617 Z M7.42644754,12.5288711 C7.42644754,11.7097348 8.08517278,11.0450684 8.91025028,11.0450684 L11.8837969,11.0450684 C12.7029332,11.0450684 13.3675996,11.7037936 13.3675996,12.5288711 L13.3675996,15.5024177 C13.3685889,15.8962491 13.2125778,16.2742352 12.9340961,16.552717 C12.6556144,16.8311987 12.2776283,16.9872098 11.8837969,16.9862205 L8.91025028,16.9862205 C8.51641889,16.9872098 8.13843279,16.8311987 7.85995106,16.552717 C7.58146933,16.2742352 7.42545826,15.8962491 7.42644754,15.5024177 L7.42644754,12.5288711 L7.42644754,12.5288711 Z M8.16909155,12.5288711 L8.16909155,15.5024177 C8.16909155,15.9153278 8.49882549,16.2435765 8.91025028,16.2435765 L11.8837969,16.2435765 C12.0806674,16.2445703 12.269762,16.1668033 12.4089722,16.0275931 C12.5481825,15.8883828 12.6259494,15.6992882 12.6249556,15.5024177 L12.6249556,12.5288711 C12.6259494,12.3320006 12.5481825,12.142906 12.4089722,12.0036958 C12.269762,11.8644855 12.0806674,11.7867186 11.8837969,11.7877124 L8.91025028,11.7877124 C8.71337979,11.7867186 8.52428519,11.8644855 8.38507495,12.0036958 C8.24586471,12.142906 8.16809774,12.3320006 8.16909155,12.5288711 L8.16909155,12.5288711 Z M7.4271653e-06,12.5288711 C7.4271653e-06,11.7097348 0.658732671,11.0450684 1.48381016,11.0450684 L4.45735678,11.0450684 C5.27649313,11.0450684 5.94115952,11.7037936 5.94115952,12.5288711 L5.94115952,15.5024177 C5.9421488,15.8962491 5.78613774,16.2742352 5.507656,16.552717 C5.22917427,16.8311987 4.85118817,16.9872098 4.45735678,16.9862205 L1.48381016,16.9862205 C1.08997876,16.9872098 0.71199267,16.8311987 0.433510942,16.552717 C0.155029213,16.2742352 -0.000981852557,15.8962491 7.4271653e-06,15.5024177 L7.4271653e-06,12.5288711 L7.4271653e-06,12.5288711 Z M0.742651441,12.5288711 L0.742651441,15.5024177 C0.742651441,15.9153278 1.07238538,16.2435765 1.48381016,16.2435765 L4.45735678,16.2435765 C4.65422728,16.2445703 4.84332187,16.1668033 4.98253211,16.0275931 C5.12174235,15.8883828 5.19950932,15.6992882 5.19851551,15.5024177 L5.19851551,12.5288711 C5.19950932,12.3320006 5.12174235,12.142906 4.98253211,12.0036958 C4.84332187,11.8644855 4.65422728,11.7867186 4.45735678,11.7877124 L1.48381016,11.7877124 C1.28693966,11.7867186 1.09784507,11.8644855 0.958634834,12.0036958 C0.819424597,12.142906 0.741657631,12.3320006 0.742651441,12.5288711 L0.742651441,12.5288711 Z" id="管理日志"></path>
            </g>
        </g>
    </g>
</svg>