<?xml version="1.0" encoding="UTF-8"?>
<svg width="16px" height="14px" viewBox="0 0 16 14" version="1.1" xmlns="http://www.w3.org/2000/svg" xmlns:xlink="http://www.w3.org/1999/xlink">
    <!-- Generator: Sketch 42 (36781) - http://www.bohemiancoding.com/sketch -->
    <title>团队客户（选中）</title>
    <desc>Created with Sketch.</desc>
    <defs></defs>
    <g id="销售总监" stroke="none" stroke-width="1" fill="none" fill-rule="evenodd">
        <g id="团队客户" transform="translate(-30.000000, -200.000000)" fill-rule="nonzero" fill="#4C9BFF">
            <g transform="translate(30.000000, 197.000000)" id="团队客户（选中）">
                <g transform="translate(0.000000, 3.000000)">
                    <g id="Group">
                        <path d="M12.5231308,13.9851566 L2.85492587,13.9851566 C2.68988704,13.9851566 2.54403877,13.8661697 2.49798142,13.7088 C2.2715328,12.8835684 2.1794181,12.2963106 2.1794181,11.6898613 C2.1794181,9.394566 3.56113853,7.31421473 5.56463316,6.44676198 C4.6434862,5.79041499 4.06393124,4.71185649 4.06393124,3.55269398 C4.06393124,1.59516787 5.65674785,0.00611726908 7.61034702,0.00611726908 C9.56778429,0.00611726908 11.1567628,1.59900616 11.1567628,3.55269398 C11.1567628,5.00740455 10.2816732,6.3009071 8.93065765,6.84210549 C8.74259015,6.91887122 8.52381775,6.82675234 8.45089361,6.63483802 C8.37413137,6.44676198 8.46624606,6.22797965 8.65815168,6.15505221 C9.72898501,5.72516412 11.0876768,7.21058099 11.2412013,7.34492102 C12.4924259,8.44267095 13.2101529,10.0163684 13.2101529,11.6668316 C13.2101529,12.2771191 13.1142001,12.891245 12.8915896,13.7049617 C12.8340179,13.8661697 12.6881696,13.9851566 12.5231308,13.9851566 Z" id="Shape"></path>
                        <path d="M14.7569121,11.9892477 L13.6822407,11.9892477 C13.4788207,11.9892477 13.3137819,11.8280396 13.3137819,11.6246104 C13.3137819,11.4211813 13.4788207,11.2599732 13.6822407,11.2599732 L14.4575394,11.2599732 L14.4613775,11.2331052 C14.5688446,10.7264514 14.6225782,10.4692862 14.6225782,10.1084873 C14.6225782,9.46749344 14.4575394,8.83417617 14.1466523,8.27378635 C13.897175,7.82854511 13.5670973,7.43320161 13.1871242,7.13765355 C13.0604665,7.0378581 12.9568375,6.96493066 12.8608847,6.90351807 C12.530807,6.70008889 12.1815388,6.554234 11.8169181,6.47362999 C11.6595555,6.43908541 11.540574,6.30474538 11.5290597,6.14353735 C11.5175453,5.98232932 11.60966,5.82879786 11.7593464,5.77122356 C12.5461594,5.45648407 13.0566284,4.70417992 13.0566284,3.85591861 C13.0566284,2.71978581 12.1585101,1.82930335 11.0109145,1.82930335 C10.8074946,1.82930335 10.6424557,1.66425703 10.6424557,1.46082784 C10.6424557,1.25739866 10.8074946,1.09235234 11.0109145,1.09235234 C12.5730262,1.09235234 13.7973841,2.30908916 13.7973841,3.85975689 C13.7973841,4.71569478 13.4135728,5.50254351 12.7764462,6.02455047 C12.9376469,6.09747791 13.0950095,6.18192021 13.2523721,6.27787738 C13.3751917,6.35464311 13.4980113,6.44292369 13.6476977,6.55807229 C14.104433,6.91503293 14.4997586,7.38714217 14.7952933,7.9168257 C15.1675902,8.58468755 15.3633339,9.34466827 15.3633339,10.1123256 C15.3633339,10.5498902 15.298086,10.8646297 15.1867807,11.3866367 L15.1215328,11.6975379 C15.0831517,11.8702608 14.9334653,11.9892477 14.7569121,11.9892477 L14.7569121,11.9892477 Z M1.84166422,11.9892477 L0.613468279,11.9892477 C0.436915113,11.9892477 0.287228733,11.8702608 0.252685722,11.6975379 L0.187437813,11.3827984 C0.0761325559,10.8607914 0.0108846466,10.5460519 0.0108846466,10.1084873 C0.0108846466,8.35439036 1.07787987,6.73463347 2.59777234,6.03606533 C1.9606457,5.51405837 1.57683447,4.72337135 1.57683447,3.86359518 C1.57683447,2.33595716 2.86260209,1.09235234 4.44006625,1.09235234 C4.6434862,1.09235234 4.80852503,1.25739866 4.80852503,1.46082784 C4.80852503,1.66425703 4.6434862,1.82930335 4.44006625,1.82930335 C3.269442,1.82930335 2.31759014,2.74281553 2.31759014,3.86359518 C2.31759014,4.70417992 2.83957342,5.4756755 3.6148721,5.78657671 C3.76455848,5.84798929 3.86051129,5.99768246 3.84515884,6.1588905 C3.83364451,6.32009853 3.71466302,6.45443855 3.55730042,6.48898313 C1.9606457,6.84210549 0.755478434,8.39661151 0.755478434,10.1084873 C0.755478434,10.4692862 0.809212007,10.7226131 0.916679151,11.2331052 L0.920517264,11.2599732 L1.84550233,11.2599732 C2.04892228,11.2599732 2.21396111,11.4211813 2.21396111,11.6246104 C2.21396111,11.8280396 2.04508417,11.9892477 1.84166422,11.9892477 L1.84166422,11.9892477 Z" id="Shape"></path>
                    </g>
                </g>
            </g>
        </g>
    </g>
</svg>