<?xml version="1.0" encoding="UTF-8"?>
<svg width="14px" height="14px" viewBox="0 0 14 14" version="1.1" xmlns="http://www.w3.org/2000/svg" xmlns:xlink="http://www.w3.org/1999/xlink">
    <!-- Generator: Sketch 42 (36781) - http://www.bohemiancoding.com/sketch -->
    <title>公共客户</title>
    <desc>Created with Sketch.</desc>
    <defs></defs>
    <g id="销售代表" stroke="none" stroke-width="1" fill="none" fill-rule="evenodd">
        <g id="我的客户" transform="translate(-30.000000, -200.000000)" fill-rule="nonzero" fill="#D6DADB">
            <g id="公共客户" transform="translate(30.000000, 197.000000)">
                <path d="M5.34333334,9.55666666 C3.43,9.55666666 1.86666668,8.08666666 1.86666666,6.26666666 C1.86666666,4.47 3.38333332,3 5.34333334,3 C7.28,3 8.82,4.47 8.82,6.29 C8.82,8.11 7.23333334,9.55666666 5.34333334,9.55666666 L5.34333334,9.55666666 Z M5.34333334,3.7 C3.80333334,3.7 2.56666668,4.84333334 2.56666666,6.31333334 C2.56666666,7.78333334 3.80333332,8.90333334 5.34333334,8.90333334 C6.88333334,8.90333334 8.12,7.76 8.12,6.29 C8.12,4.82 6.83666666,3.7 5.34333334,3.7 L5.34333334,3.7 Z M6.39333334,15.5766667 L4.22333334,15.5766667 C1.96,15.5766667 0,15.5766667 0,14.0366667 L0,13.8266667 C0.0233333379,11.6333333 1.93666666,9.83666666 4.24666666,9.83666666 L6.41666666,9.83666666 C6.93,9.83666666 7.44333332,9.95333332 7.91,10.1166667 C8.05,10.14 8.16666666,10.21 8.30666666,10.28 C8.49333332,10.35 8.56333332,10.56 8.44666666,10.7233333 C8.37666666,10.91 8.14333332,10.98 7.98,10.8633333 C7.86333334,10.84 7.77,10.77 7.65333334,10.7233333 C7.25666668,10.5833333 6.81333334,10.5133333 6.37,10.5133333 L4.24666666,10.5133333 C2.28666666,10.5366667 0.723333338,12.0533333 0.723333338,13.85 L0.723333338,14.06 C0.723333338,14.9 2.07666668,14.9233333 4.24666666,14.9233333 L6.88333334,14.9233333 C7.07,14.9233333 7.21,15.0633333 7.25666666,15.2266667 C7.25666666,15.4133333 7.11666666,15.5766667 6.93,15.5766667 L6.39333334,15.5766667 L6.39333334,15.5766667 Z M10.5,17 C8.56333334,17 6.97666666,15.5066667 6.97666666,13.64 C6.97666666,11.7966667 8.56333332,10.28 10.5,10.28 C12.4366667,10.28 14.0233333,11.7733333 14.0233333,13.64 C13.9766667,15.5066667 12.4133333,17 10.5,17 L10.5,17 Z M10.5,11.0033333 C8.96,11.0033333 7.67666666,12.1933333 7.67666666,13.6866667 C7.67666666,15.18 8.91333332,16.37 10.5,16.37 C12.0866667,16.37 13.3233333,15.18 13.3233333,13.6866667 C13.3233333,12.1933333 12.04,11.0033333 10.5,11.0033333 L10.5,11.0033333 Z M8.93666666,13.6866667 C8.93666666,13.5233333 9.07666666,13.36 9.26333334,13.36 C9.45,13.36 9.59,13.5 9.59,13.6866667 C9.59,13.85 9.45,14.0133333 9.26333334,14.0133333 C9.03,13.9666667 8.93666668,13.8266667 8.93666666,13.6866667 L8.93666666,13.6866667 Z M10.1733333,13.6866667 C10.1733333,13.5233333 10.3133333,13.36 10.5,13.36 C10.6866667,13.36 10.8266667,13.5 10.8266667,13.6866667 C10.8266667,13.85 10.6866667,14.0133333 10.5,14.0133333 C10.3133333,13.9666667 10.1733333,13.8266667 10.1733333,13.6866667 L10.1733333,13.6866667 Z M11.41,13.6866667 C11.41,13.5233333 11.55,13.36 11.7366667,13.36 C11.9233333,13.36 12.0633333,13.5 12.0633333,13.6866667 C12.0633333,13.85 11.9233333,14.0133333 11.7366667,14.0133333 C11.5733333,13.9666667 11.41,13.8266667 11.41,13.6866667 L11.41,13.6866667 Z"></path>
            </g>
        </g>
    </g>
</svg>