<?xml version="1.0" encoding="UTF-8"?>
<svg width="16px" height="16px" viewBox="0 0 16 16" version="1.1" xmlns="http://www.w3.org/2000/svg" xmlns:xlink="http://www.w3.org/1999/xlink">
    <!-- Generator: Sketch 42 (36781) - http://www.bohemiancoding.com/sketch -->
    <title>员工管理</title>
    <desc>Created with Sketch.</desc>
    <defs></defs>
    <g id="销售总监" stroke="none" stroke-width="1" fill="none" fill-rule="evenodd">
        <g id="团队客户" transform="translate(-29.000000, -537.000000)" stroke-width="0.3" stroke="#D6DADB" fill-rule="nonzero" fill="#D6DADB">
            <g id="员工管理" transform="translate(30.000000, 535.000000)">
                <path d="M2.71401947,3.01543556 C2.10419984,3.01543556 1.60283933,3.51425624 1.60283933,4.12165508 L1.60283933,4.60283576 L1.11669802,4.60283576 C0.509319011,4.60283576 0.0154391302,5.10564477 0.0154391302,5.7140159 L0.0154391302,14.285977 C0.0154391302,14.8943481 0.509319011,15.3971571 1.11669802,15.3971571 L1.60283933,15.3971571 L1.60283933,15.8832984 C1.60283933,16.4906576 2.10658093,16.9845573 2.71401947,16.9845573 L11.2859805,16.9845573 C11.8933992,16.9845573 12.3971607,16.4906576 12.3971607,15.8832984 L12.3971607,15.3971571 L12.883302,15.3971571 C13.4907008,15.3971571 13.9845609,14.8943481 13.9845609,14.285977 L13.9845609,5.7140159 C13.9845609,5.10564477 13.4907008,4.60283576 12.883302,4.60283576 L12.3971607,4.60283576 L12.3971607,4.12165508 C12.3533881,3.51937561 11.7340639,3.0280554 11.2859805,3.01543556 L2.71401947,3.01543556 Z M2.71401947,3.65039563 L11.2859805,3.65039563 C11.5945116,3.72415021 11.7393817,3.89509337 11.7622006,4.12165506 L11.7622006,4.60283574 L2.23779942,4.60283574 L2.23779942,4.12165506 C2.2377994,3.85850381 2.44451859,3.65039563 2.71401947,3.65039563 L2.71401947,3.65039563 Z M1.11669802,5.23779583 L12.883302,5.23779583 C13.1464136,5.23779583 13.3496008,5.44296731 13.3496008,5.7140159 L13.3496008,14.285977 C13.3496008,14.5570256 13.1464136,14.762197 12.883302,14.762197 L1.11669802,14.762197 C0.853586438,14.762197 0.650399202,14.5570256 0.650399202,14.285977 L0.650399202,5.7140159 C0.650399222,5.44296731 0.853586438,5.23779583 1.11669802,5.23779583 L1.11669802,5.23779583 Z M7,5.70907512 C5.9517206,5.70907512 5.09511976,6.56517989 5.09511976,7.61395535 C5.09511976,8.66271098 5.9517206,9.52379622 7,9.52379622 C8.0482794,9.52379622 8.90488024,8.66271098 8.90488024,7.61395535 C8.90488024,6.56517989 8.0482794,5.70907512 7,5.70907512 Z M7,6.34403519 C7.70512317,6.34403519 8.26992016,6.90849485 8.26992016,7.61395535 C8.26992016,8.319396 7.70512317,8.88387552 7,8.88387552 C6.29487683,8.88387552 5.73007984,8.319396 5.73007984,7.61395535 C5.73007984,6.90849485 6.29487683,6.34403519 7,6.34403519 Z M7,9.83631563 C6.07579576,9.83631563 5.23151713,10.0234899 4.58913595,10.4167088 C3.94675478,10.8099674 3.50771957,11.4434988 3.50771957,12.2174159 C3.52137121,12.6687733 3.46579236,13.2031914 3.60693208,13.59645 C3.97126026,14.3597712 4.97209624,14.245399 5.55149731,14.2661344 C6.55911943,14.2970491 7.58233776,14.2710554 8.44850267,14.2661344 C9.12624319,14.2402598 9.56750076,14.273754 9.95653286,14.0825913 C10.5758967,13.5943467 10.4922804,12.9094232 10.4922804,12.2173961 C10.4922804,11.4434789 10.0532452,10.8099475 9.41086403,10.416689 C8.76848287,10.0234701 7.92420424,9.83629579 7,9.83631563 L7,9.83631563 Z M7,10.4712757 C7.83465502,10.4712757 8.57815359,10.6480724 9.08346276,10.9573972 C9.58877194,11.2667418 9.85732036,11.671132 9.85732036,12.2174159 C9.83251723,12.6118253 9.94561951,13.2426185 9.67873784,13.5121392 C9.17684158,13.6128002 8.8245181,13.6159552 8.42369956,13.6311942 C7.4320705,13.6251621 6.41575737,13.6572871 5.57133983,13.6361152 C5.16423121,13.5639678 4.42989988,13.7168345 4.20220715,13.373202 C4.11424535,12.9760345 4.14267964,12.6557368 4.14267964,12.2173762 C4.14267964,11.6711121 4.41122806,11.2667219 4.91653724,10.9573575 C5.62416057,10.6293212 6.36886953,10.4763355 7,10.4712757 L7,10.4712757 Z M2.2377994,15.3971769 L11.7622006,15.3971769 L11.7622006,15.8833183 C11.7622006,16.1464894 11.5578426,16.3496171 11.2859805,16.3496171 L2.71401945,16.3496171 C2.44213747,16.3496171 2.23779938,16.1464894 2.23779938,15.8833183 L2.2377994,15.3971769 Z"></path>
            </g>
        </g>
    </g>
</svg>