<?xml version="1.0" encoding="UTF-8"?>
<svg width="15px" height="15px" viewBox="0 0 15 15" version="1.1" xmlns="http://www.w3.org/2000/svg" xmlns:xlink="http://www.w3.org/1999/xlink">
    <!-- Generator: Sketch 42 (36781) - http://www.bohemiancoding.com/sketch -->
    <title>公共客户（选中）</title>
    <desc>Created with Sketch.</desc>
    <defs></defs>
    <g id="销售代表" stroke="none" stroke-width="1" fill="none" fill-rule="evenodd">
        <g id="公共客户" transform="translate(-30.000000, -200.000000)" fill="#4C9BFF">
            <g transform="translate(30.000000, 197.000000)" id="公共客户（选中）">
                <g transform="translate(0.000000, 3.000000)">
                    <path d="M5.67399026,7 L4.24666666,7 C1.93666666,7 0.0233333379,8.79666668 0,10.99 L0,11.2 C0,12.74 1.96,12.74 4.22333334,12.74 L6.39333334,12.74 L6.66166667,12.74 L7.12464718,12.74 C8.85081859,12.74 8.63153535,11.7749251 8.43022006,10.6336713 L8.55368758,9.52823997 L11.2484131,9.39086914 C11.2250797,7.19753582 9.41131385,7 7.10131385,7 L5.67399026,7 Z M1.86666666,3.26666666 C1.86666666,1.47 3.38333332,0 5.34333334,0 C7.28,0 8.82,1.47 8.82,3.29 C8.82,5.11 7.23333334,6.55666666 5.34333334,6.55666666 C3.43,6.55666666 1.86666668,5.08666666 1.86666666,3.26666666 Z" id="Shape" fill-rule="nonzero"></path>
                    <path d="M10.5,14 C8.56333334,14 6.97666666,12.5066667 6.97666666,10.64 C6.97666666,8.79666666 8.56333332,7.28 10.5,7.28 C12.4366667,7.28 14.0233333,8.77333334 14.0233333,10.64 C13.9766667,12.5066667 12.4133333,14 10.5,14 Z M11.41,10.6866667 C11.41,10.8266667 11.5733333,10.9666667 11.7366667,11.0133333 C11.9233333,11.0133333 12.0633333,10.85 12.0633333,10.6866667 C12.0633333,10.5 11.9233333,10.36 11.7366667,10.36 C11.55,10.36 11.41,10.5233333 11.41,10.6866667 Z M10.1733333,10.6866667 C10.1733333,10.8266667 10.3133333,10.9666667 10.5,11.0133333 C10.6866667,11.0133333 10.8266667,10.85 10.8266667,10.6866667 C10.8266667,10.5 10.6866667,10.36 10.5,10.36 C10.3133333,10.36 10.1733333,10.5233333 10.1733333,10.6866667 Z M8.93666666,10.6866667 C8.93666668,10.8266667 9.03,10.9666667 9.26333334,11.0133333 C9.45,11.0133333 9.59,10.85 9.59,10.6866667 C9.59,10.5 9.45,10.36 9.26333334,10.36 C9.07666666,10.36 8.93666666,10.5233333 8.93666666,10.6866667 Z" id="Combined-Shape" stroke="#F5F6F7" stroke-width="0.5"></path>
                </g>
            </g>
        </g>
    </g>
</svg>