<?xml version="1.0" encoding="UTF-8"?>
<svg width="16px" height="16px" viewBox="0 0 16 16" version="1.1" xmlns="http://www.w3.org/2000/svg" xmlns:xlink="http://www.w3.org/1999/xlink">
    <!-- Generator: Sketch 42 (36781) - http://www.bohemiancoding.com/sketch -->
    <title>登录日志</title>
    <desc>Created with Sketch.</desc>
    <defs></defs>
    <g id="超级管理员" stroke="none" stroke-width="1" fill="none" fill-rule="evenodd">
        <g id="客户统计" transform="translate(-30.000000, -643.000000)" stroke="#D6DADB" stroke-width="0.3" fill="#D6DADB" fill-rule="nonzero">
            <g id="员工管理-copy-2" transform="translate(31.000000, 641.000000)">
                <path d="M12.2181818,17 L3.75454546,17 C2.8,17 2.03636364,16.2363636 2.03636364,15.2818182 L2.03636364,13.5636364 L2.92727273,13.5636364 L2.92727273,15.2818182 C2.92727273,15.7909091 3.30909091,16.1727273 3.81818181,16.1727273 L12.2818182,16.1727273 C12.7909091,16.1727273 13.1727273,15.7909091 13.1727273,15.2818182 L13.1727273,4.78181819 C13.1727273,4.27272727 12.7909091,3.8909091 12.2818182,3.89090909 L3.56363636,3.89090909 C2.99090909,3.89090909 2.6090909,4.27272727 2.60909091,4.71818181 L2.60909091,6.43636364 L1.78181819,6.43636364 L1.78181819,4.71818181 C1.78181819,3.76363636 2.54545454,3 3.5,3 L12.2181818,3 C13.2363636,3 14,3.76363636 14,4.71818181 L14,15.2181818 C14,16.2363636 13.1727273,17 12.2181818,17 Z M8.46363636,7.39090909 C8.27272727,7.2 8.27272727,6.94545454 8.46363636,6.75454546 C8.65454544,6.56363637 8.9090909,6.56363637 9.1,6.75454546 L12.0909091,9.74545454 C12.1545454,9.8090909 12.2181818,9.93636363 12.2181818,10.0636364 C12.2181818,10.1909091 12.1545455,10.3181818 12.0909091,10.3818182 L9.1,13.3727273 C8.90909091,13.5636364 8.65454546,13.5636364 8.46363636,13.3727273 C8.27272727,13.1818182 8.27272727,12.9272727 8.46363636,12.7363636 L10.7545455,10.4454545 L0.445454543,10.4454545 C0.190909086,10.4454545 0,10.2545455 0,10 C0,9.74545454 0.190909086,9.55454546 0.445454543,9.55454546 L10.7545455,9.55454546 L8.46363636,7.39090909 L8.46363636,7.39090909 Z" id="登录日志"></path>
            </g>
        </g>
    </g>
</svg>