<?xml version="1.0" encoding="UTF-8"?>
<svg width="15px" height="14px" viewBox="0 0 15 14" version="1.1" xmlns="http://www.w3.org/2000/svg" xmlns:xlink="http://www.w3.org/1999/xlink">
    <!-- Generator: Sketch 42 (36781) - http://www.bohemiancoding.com/sketch -->
    <title>沟通统计（选中）</title>
    <desc>Created with Sketch.</desc>
    <defs></defs>
    <g id="销售代表" stroke="none" stroke-width="1" fill="none" fill-rule="evenodd">
        <g id="沟通统计" transform="translate(-30.000000, -348.000000)" fill-rule="nonzero" fill="#4C9BFF">
            <g id="对话统计" transform="translate(30.000000, 345.000000)">
                <g id="Group" transform="translate(0.000000, 3.000000)">
                    <path d="M10.1120898,13.7751697 L8.97610075,12.7386109 C8.39355001,12.8727565 7.79493731,12.9406464 7.19275266,12.9406464 C5.28335995,12.9406464 3.48581752,12.2741204 2.13124059,11.0638913 C1.46749275,10.4708583 0.945758143,9.77902529 0.580557928,9.00760609 C0.200439664,8.20466988 0.00771910749,7.35139986 0.00771910749,6.47146881 C0.00771910749,5.35777506 0.327044583,4.25953632 0.9311903,3.29546659 C1.21328735,2.75961304 1.9604187,1.87536621 3.22653775,1.07575991 C4.40328882,0.373467967 5.7747682,0.00226784039 7.19272931,0.00226784039 C9.10212203,0.00226784039 10.8996645,0.668770492 12.2542647,1.87902295 C12.9180126,2.472056 13.4397238,3.16388898 13.8049474,3.9353082 C14.1850423,4.73824441 14.3777862,5.59151443 14.3777862,6.47144546 C14.3777862,7.51935041 14.0929426,8.56013483 13.5540255,9.48124809 C13.0746404,10.3006665 12.3944803,11.0274483 11.5780035,11.5950577 L11.476262,13.2233889 C11.456488,13.5397261 11.2616896,13.8100251 10.9679046,13.9288559 C10.8700363,13.9686757 10.7653973,13.9892151 10.6597384,13.9893451 C10.4608312,13.9893451 10.2661729,13.9157821 10.1120898,13.7751697 Z M2.85641154,6.47118867 C2.85641153,6.80103809 3.0323841,7.10583153 3.31804207,7.27075624 C3.60370005,7.43568095 3.95564519,7.43568095 4.24130317,7.27075624 C4.52696114,7.10583153 4.70293371,6.80103809 4.7029337,6.47118867 C4.70293371,6.14133925 4.52696114,5.83654581 4.24130317,5.6716211 C3.95564519,5.50669639 3.60370005,5.50669639 3.31804207,5.6716211 C3.0323841,5.83654581 2.85641153,6.14133925 2.85641154,6.47118867 L2.85641154,6.47118867 Z M6.23022375,6.47118867 C6.23022374,6.80103809 6.4061963,7.10583154 6.69185428,7.27075625 C6.97751225,7.43568097 7.3294574,7.43568097 7.61511538,7.27075625 C7.90077336,7.10583154 8.07674592,6.80103809 8.07674591,6.47118867 C8.07674592,6.14133925 7.90077336,5.83654581 7.61511538,5.67162109 C7.3294574,5.50669638 6.97751225,5.50669638 6.69185428,5.67162109 C6.4061963,5.83654581 6.23022374,6.14133925 6.23022375,6.47118867 L6.23022375,6.47118867 Z M9.48616241,6.47118867 C9.4861624,6.80103809 9.66213496,7.10583154 9.94779294,7.27075625 C10.2334509,7.43568097 10.5853961,7.43568097 10.871054,7.27075625 C11.156712,7.10583154 11.3326846,6.80103809 11.3326846,6.47118867 C11.3326846,5.96128566 10.9193265,5.54792759 10.4094235,5.54792759 C9.89952048,5.54792759 9.48616241,5.96128566 9.48616241,6.47118867 L9.48616241,6.47118867 Z" id="沟通统计（选中）"></path>
                </g>
            </g>
        </g>
    </g>
</svg>