<?xml version="1.0" encoding="UTF-8"?>
<svg width="16px" height="16px" viewBox="0 0 16 16" version="1.1" xmlns="http://www.w3.org/2000/svg" xmlns:xlink="http://www.w3.org/1999/xlink">
    <!-- Generator: Sketch 42 (36781) - http://www.bohemiancoding.com/sketch -->
    <title>部门管理（选中）</title>
    <desc>Created with Sketch.</desc>
    <defs></defs>
    <g id="超级管理员" stroke="none" stroke-width="1" fill="none" fill-rule="evenodd">
        <g id="部门管理-弹窗" transform="translate(-29.000000, -495.000000)" stroke="#D6DADB" stroke-width="0.2" fill="#D6DADB" fill-rule="nonzero">
            <g id="员工管理" transform="translate(0.000000, 485.000000)">
                <path d="M42.8976903,19.9010925 L41.6058856,19.9010925 L41.6058856,17.7306089 L41.5896832,17.7306089 L41.5896832,17.7142701 L37.3262826,17.7142701 L37.3262826,16.051227 L38.6180532,16.051227 C39.2173354,16.051227 39.7049067,15.5625812 39.7049067,14.9618834 L39.7049067,12.0893265 C39.7049067,11.4886799 39.2173354,11 38.6180532,11 L35.2143833,11 C34.615067,11 34.1274957,11.4886799 34.1274957,12.0893265 L34.1274957,14.9618834 C34.1274957,15.5625642 34.615067,16.051227 35.2143833,16.051227 L36.5871997,16.051227 L36.5871997,17.7142872 L32.1302407,17.7142872 L32.1302407,17.730626 L32.1302407,18.523296 L32.1302407,19.9336166 L31.0862808,19.9336166 C30.4869986,19.9336166 29.9994273,20.4223306 29.9994273,21.0229943 L29.9994273,23.8955341 C29.9994273,24.4962149 30.4869986,24.9848436 31.0862808,24.9848436 L34.4898484,24.9848436 C35.0891647,24.9848436 35.576736,24.4962149 35.576736,23.8955341 L35.576736,21.0229943 C35.576736,20.4223306 35.0891647,19.9336166 34.4898484,19.9336166 L32.8854407,19.9336166 L32.8854407,18.523296 L40.8346879,18.523296 L40.8346879,19.9011096 L39.4941568,19.9011096 C38.8948234,19.9011096 38.4073033,20.3898065 38.4073033,20.9904872 L38.4073033,23.8630953 C38.4073033,24.4636908 38.8948234,24.9524048 39.4941568,24.9524048 L42.8977074,24.9524048 C43.4970407,24.9524048 43.9845609,24.4636908 43.9845609,23.8630953 L43.9845609,20.9904702 C43.9845438,20.3898065 43.4970237,19.9010925 42.8976903,19.9010925 Z" id="部门管理（选中）"></path>
            </g>
        </g>
    </g>
</svg>