<?xml version="1.0" encoding="UTF-8"?>
<svg width="15px" height="14px" viewBox="0 0 15 14" version="1.1" xmlns="http://www.w3.org/2000/svg" xmlns:xlink="http://www.w3.org/1999/xlink">
    <!-- Generator: Sketch 42 (36781) - http://www.bohemiancoding.com/sketch -->
    <title>客户统计</title>
    <desc>Created with Sketch.</desc>
    <defs></defs>
    <g id="销售代表" stroke="none" stroke-width="1" fill="none" fill-rule="evenodd">
        <g id="我的客户" transform="translate(-30.000000, -306.000000)" fill-rule="nonzero" fill="#D6DADB">
            <g id="客户统计" transform="translate(30.000000, 303.000000)">
                <path d="M13.815873,16.1761905 L0.406349206,16.1761905 C0.180952381,16.1761905 0,16.3571429 0,16.5825397 L0,16.5904762 C0,16.815873 0.180952381,16.9968254 0.406349206,16.9968254 L13.815873,16.9968254 C14.0412698,16.9968254 14.2222222,16.815873 14.2222222,16.5904762 L14.2222222,16.5825397 C14.2222222,16.3571429 14.0412698,16.1761905 13.815873,16.1761905 Z M2.73174603,14.6571429 L2.70952381,14.6571429 C1.97142857,14.6571429 1.36984127,14.0555556 1.36984127,13.3174603 L1.36984127,6.54444444 C1.36984127,5.80634921 1.97142857,5.2047619 2.70952381,5.2047619 L2.73174603,5.2047619 C3.46984127,5.2047619 4.07142857,5.80634921 4.07142857,6.54444444 L4.07142857,13.3174603 C4.07142857,14.0539683 3.46825397,14.6571429 2.73174603,14.6571429 L2.73174603,14.6571429 Z M2.70952381,5.94285714 C2.37777778,5.94285714 2.10793651,6.21428571 2.10793651,6.54444444 L2.10793651,13.3174603 C2.10793651,13.6492063 2.37936508,13.9190476 2.70952381,13.9190476 L2.73174603,13.9190476 C3.06349206,13.9190476 3.33333333,13.647619 3.33333333,13.3174603 L3.33333333,6.54444444 C3.33333333,6.21269841 3.06190476,5.94285714 2.73174603,5.94285714 L2.70952381,5.94285714 L2.70952381,5.94285714 Z M11.3333333,14.6571429 L11.3111111,14.6571429 C10.5730159,14.6571429 9.97142857,14.0555556 9.97142857,13.3174603 L9.97142857,7.28253968 C9.97142857,6.54444444 10.5730159,5.94285714 11.3111111,5.94285714 L11.3333333,5.94285714 C12.0714286,5.94285714 12.6730159,6.54444444 12.6730159,7.28253968 L12.6730159,8.33650794 C12.6730159,8.53968254 12.5079365,8.7047619 12.3047619,8.7047619 C12.1015873,8.7047619 11.9365079,8.53968254 11.9365079,8.33650794 L11.9365079,7.28253968 C11.9365079,6.95079365 11.6650794,6.68095238 11.3349206,6.68095238 L11.3126984,6.68095238 C10.9809524,6.68095238 10.7111111,6.95238095 10.7111111,7.28253968 L10.7111111,13.3174603 C10.7111111,13.6492063 10.9825397,13.9190476 11.3126984,13.9190476 L11.3349206,13.9190476 C11.6666667,13.9190476 11.9365079,13.647619 11.9365079,13.3174603 L11.9365079,9.78095238 C11.9365079,9.57777778 12.1015873,9.41269841 12.3047619,9.41269841 C12.5079365,9.41269841 12.6730159,9.57777778 12.6730159,9.78095238 L12.6730159,13.3174603 C12.6714286,14.0539683 12.0698413,14.6571429 11.3333333,14.6571429 L11.3333333,14.6571429 Z M7.02857143,14.6571429 L7.00634921,14.6571429 C6.26825397,14.6571429 5.66666667,14.0555556 5.66666667,13.3174603 L5.66666667,4.33968254 C5.66666667,3.6015873 6.26825397,3 7.00634921,3 L7.02857143,3 C7.76666667,3 8.36825397,3.6015873 8.36825397,4.33968254 L8.36825397,13.3238095 C8.36825397,14.0539683 7.76507937,14.6571429 7.02857143,14.6571429 L7.02857143,14.6571429 Z M7.00634921,3.73015873 C6.67460317,3.73015873 6.4047619,4.0015873 6.4047619,4.33174603 L6.4047619,13.315873 C6.4047619,13.647619 6.67619048,13.9174603 7.00634921,13.9174603 L7.02857143,13.9174603 C7.36031746,13.9174603 7.63015873,13.6460317 7.63015873,13.315873 L7.63015873,4.33968254 C7.63015873,4.00793651 7.35873016,3.73809524 7.02857143,3.73809524 L7.00634921,3.73809524 L7.00634921,3.73015873 L7.00634921,3.73015873 Z"></path>
            </g>
        </g>
    </g>
</svg>