<?xml version="1.0" encoding="UTF-8"?>
<svg width="18px" height="16px" viewBox="0 0 18 16" version="1.1" xmlns="http://www.w3.org/2000/svg" xmlns:xlink="http://www.w3.org/1999/xlink">
    <!-- Generator: Sketch 42 (36781) - http://www.bohemiancoding.com/sketch -->
    <title>业绩统计</title>
    <desc>Created with Sketch.</desc>
    <defs></defs>
    <g id="销售代表" stroke="none" stroke-width="1" fill="none" fill-rule="evenodd">
        <g id="我的客户" transform="translate(-29.000000, -389.000000)" fill-rule="nonzero" fill="#D6DADB">
            <g id="业绩统计" transform="translate(30.000000, 387.000000)">
                <g transform="translate(0.000000, 3.000000)" id="Shape">
                    <path d="M15.7437292,14 L0.291666662,14 C0.130583609,14 -6.83598953e-09,13.8694164 -6.83598955e-09,13.7083333 C-6.83598957e-09,13.5472503 0.130583609,13.4166667 0.291666662,13.4166667 L15.7437292,13.4166667 C15.9048122,13.4166667 16.0353958,13.5472503 16.0353958,13.7083333 C16.0353958,13.8694164 15.9048122,14 15.7437292,14 L15.7437292,14 Z" stroke="#D6DADB" stroke-width="0.3"></path>
                    <path d="M3.64583334,14 L2.04166666,14 C1.55910416,14 1.16666666,13.6075625 1.16666666,13.125 L1.16666666,9.47916666 C1.16666666,8.99660416 1.55910416,8.60416666 2.04166666,8.60416666 L3.64583334,8.60416666 C4.12839584,8.60416666 4.52083334,8.99660416 4.52083334,9.47916666 L4.52083334,13.125 C4.52083334,13.6075625 4.12839584,14 3.64583334,14 Z M2.04166666,9.1875 C1.8808125,9.1875 1.75,9.3183125 1.75,9.47916666 L1.75,13.125 C1.75,13.2858542 1.8808125,13.4166667 2.04166666,13.4166667 L3.64583334,13.4166667 C3.8066875,13.4166667 3.9375,13.2858542 3.9375,13.125 L3.9375,9.47916666 C3.9375,9.3183125 3.8066875,9.1875 3.64583334,9.1875 L2.04166666,9.1875 Z M8.75,14 L7.14583334,14 C6.66327084,14 6.27083334,13.6075625 6.27083334,13.125 L6.27083334,7.4375 C6.27083334,6.9549375 6.66327084,6.5625 7.14583334,6.5625 L8.75,6.5625 C9.2325625,6.5625 9.625,6.9549375 9.625,7.4375 L9.625,13.125 C9.625,13.6075625 9.2325625,14 8.75,14 Z M7.14583334,7.14583334 C6.98497918,7.14583334 6.85416668,7.27664584 6.85416666,7.4375 L6.85416666,13.125 C6.85416666,13.2858542 6.98497916,13.4166667 7.14583334,13.4166667 L8.75,13.4166667 C8.91085416,13.4166667 9.04166666,13.2858542 9.04166666,13.125 L9.04166666,7.4375 C9.04166666,7.27664584 8.91085416,7.14583334 8.75,7.14583334 L7.14583334,7.14583334 Z M13.8541667,14 L12.25,14 C11.7674375,14 11.375,13.6075625 11.375,13.125 L11.375,5.6875 C11.375,5.2049375 11.7674375,4.8125 12.25,4.8125 L13.8541667,4.8125 C14.3367292,4.8125 14.7291667,5.2049375 14.7291667,5.6875 L14.7291667,13.125 C14.7291667,13.6075625 14.3367292,14 13.8541667,14 Z M12.25,5.39583334 C12.0891458,5.39583334 11.9583333,5.52664584 11.9583333,5.6875 L11.9583333,13.125 C11.9583333,13.2858542 12.0891458,13.4166667 12.25,13.4166667 L13.8541667,13.4166667 C14.0150208,13.4166667 14.1458333,13.2858542 14.1458333,13.125 L14.1458333,5.6875 C14.1458333,5.52664584 14.0150208,5.39583334 13.8541667,5.39583334 L12.25,5.39583334 Z M1.6043125,5.0325625 C1.47931505,5.03297242 1.36798203,4.95360979 1.32760336,4.83531316 C1.28722469,4.71701653 1.3267975,4.5861446 1.42595834,4.51004166 L5.25452084,1.55633334 C5.35856159,1.47608234 5.50341768,1.47530611 5.6083125,1.5544375 L8.97297916,4.0915 L12.8486458,0.583333338 L11.5209792,0.583333338 C11.3598961,0.583333338 11.2293125,0.452749722 11.2293125,0.291666669 C11.2293125,0.130583616 11.3598961,2.95904768e-17 11.5209792,0 L13.605375,0 C13.7259999,-5.69231498e-06 13.8341831,0.0742432448 13.8775521,0.186802126 C13.920921,0.299361007 13.8905267,0.427003881 13.8010833,0.5079375 L9.18560416,4.68577084 C9.08185128,4.77965861 8.92604122,4.78663518 8.8143125,4.70239584 L5.43477084,2.15410416 L1.782375,4.97175 C1.73141651,5.01122392 1.66877144,5.03261867 1.6043125,5.0325625 L1.6043125,5.0325625 Z" stroke="#D6DADB" stroke-width="0.3"></path>
                    <path d="M13.7083333,2.77841666 C13.6309785,2.77841667 13.556792,2.74768759 13.5020939,2.69298948 C13.4473957,2.63829137 13.4166667,2.56410481 13.4166667,2.48675 L13.4166667,0.291666662 C13.4166667,0.130583609 13.5472503,-6.83598952e-09 13.7083333,-6.83598955e-09 C13.8694164,-6.83598958e-09 14,0.130583609 14,0.291666662 L14,2.48675 C14,2.64783305 13.8694164,2.77841666 13.7083333,2.77841666 L13.7083333,2.77841666 Z"></path>
                </g>
            </g>
        </g>
    </g>
</svg>